# xmcd CD database file
#
# Track frame offsets:
#	150
#	17108
#	35941
#	62442
#	84003
#	111694
#	138615
#	167609
#	186839
#	209148
#	232161
#
# Disc length: 3438 seconds
#
# Revision: 1
# Processed by: cddbd v1.5.2PL0 Copyright (c) Steve Scherf et al.
# Submitted via: CDex 1.70beta3
#
DISCID=a30d6c0b
DTITLE=EGO-WRAPPIN' - EGO-WRAPPIN' AND THE GOSSIP OF JAXX
DYEAR=2009
DGENRE=Jazz
TTITLE0=RED SHADOW
TTITLE1=GO ACTION
TTITLE2=morning star
TTITLE3=だるい
TTITLE4=雨のdubism
TTITLE5=下弦の月
TTITLE6=million starlight hotel
TTITLE7=Whammy Kiss
TTITLE8=！楽団
TTITLE9=想像の美しい世界
TTITLE10=Dear mama
EXTD=YEAR: 2009
EXTT0=
EXTT1=
EXTT2=
EXTT3=
EXTT4=
EXTT5=
EXTT6=
EXTT7=
EXTT8=
EXTT9=
EXTT10=
PLAYORDER=
